<?xml version="1.0" encoding="utf-8"?>
<!-- Generator: Adobe Illustrator 16.0.0, SVG Export Plug-In . SVG Version: 6.00 Build 0)  -->
<!DOCTYPE svg PUBLIC "-//W3C//DTD SVG 1.1//EN" "http://www.w3.org/Graphics/SVG/1.1/DTD/svg11.dtd">
<svg version="1.1" id="Layer_1" xmlns="http://www.w3.org/2000/svg" xmlns:xlink="http://www.w3.org/1999/xlink" x="0px" y="0px"
	 width="441.4px" height="499.5px" viewBox="0 0 441.4 499.5" style="enable-background:new 0 0 441.4 499.5;" xml:space="preserve"
	>
<style type="text/css">
<![CDATA[
	.st0{fill:none;stroke:#31353D;stroke-width:4;stroke-miterlimit:10;}
	.st1{fill:none;stroke:#31353D;stroke-width:13;stroke-miterlimit:10;}
	.st2{fill:#31353D;stroke:#31353D;stroke-width:5;stroke-miterlimit:10;}
	.st3{fill:#31353D;}
	.st4{fill:none;stroke:#31353D;stroke-width:4;stroke-linejoin:round;stroke-miterlimit:10;}
]]>
</style>
<path class="st3" d="M52.5,63c-2.5,10.9-5.7,52.3-5.7,63.8c0,11.5,1.6,21.7,5.7,27.8c8.8,13.2,24.2,19.2,40.4,19
	c12.1-0.1,32.2-4.7,38.5-10.2c6.3-5.4,13.9-19,19-29.2c5.1-10.2,12.6-31.2,17.1-50.2c4.4-19,6.6-35.6,7.6-43.1
	c0.9-7.5,6.6-24.4-1.9-28.9c-6.6-3.5-22,0.4-34.4,2.5c-13.4,2.3-31.4,6.3-32.8,6.6c-9.7,1.8-28.2-0.3-34.2,3.8
	c-6,4.1-10.7,8.2-13.3,14.9C56,46.7,52.5,63,52.5,63z"/>
<path class="st3" d="M211.1,121.7c0,0,1.6,18,2.3,23.2c0.6,5.2,1.8,17,1.8,21c0,4,1,13.3,1,18.9v18.3c0.2,3.8,1.9,8.5-1,15.6
	c-2.9,7.1-5.3,11.1-8.1,14.2c0,0-3.5,5.7-14.5,8c-11,2.2-12.8,3.8-15.6,3.1c-2.8-0.7-4.9-1.7-6-5c-1.1-3.3-1.5-8.5-1.5-10
	c0-1.6,2.7-8.1,4.5-10.2c1.8-2.1,5.2-7.1,6.1-9.7c1-2.6,1.8-3.8,1.6-5.7c-0.2-1.9-3.1-8-3.4-9.4c-0.3-1.4-2.4-6.1-2.4-6.1l12.6-6.8
	l1.6,11.4l5.6-6.2c0,0-1.1-8-1.1-9.9c0-1.9-0.3-8.7-0.3-8.7l5.5-8.7c0,0,5.3-16.3,6.4-20.1C207.4,135.2,211.1,121.7,211.1,121.7z"/>
<path class="st3" d="M221,103.3c0,0,2,5.2,2.2,9.1c0,0,0.2,14,0,20.5c-0.2,6.5,0.3,28.1,1.1,33.5c0,0,2.1,13,2.1,15.3
	c0,2.3,1.7,17.7,1.7,21.6c0,3.9,1.5,15.6,1.9,18.4c0.5,2.9,3.9,11.9,6.5,14.3c2.7,2.3,16.4,6.2,19.8,5.2c3.4-1,13.8-8.6,16-14
	c2.2-5.4,3.6-10.1,2.9-14.5c-0.7-4.4-2.9-7.8-2.9-7.8s-2.2-7.5-2.9-8.8c-0.7-1.3-2.5-1.8-1.5-5.7c0.7-2.7,1.7-9.3,1.7-9.3
	l-14.5,11.4v-4.2c0,0,2.4-3.6,2.4-6.8c0-3.1,0.5-6,0.5-6s-1.2-3.1-1.2-4.9c0-1.8-5.2-8.8-7.6-14c-2.4-5.2-10.9-15.6-14.1-21.1
	C230.8,127.9,221,103.3,221,103.3z"/>
<path class="st3" d="M392.3,60.1c2.5,10.9,5.7,52.3,5.7,63.8c0,11.5-1.6,21.7-5.7,27.8c-8.8,13.2-24.3,22.2-40.5,22.1
	c-12.1-0.1-32.2-7.8-38.5-13.2c-6.3-5.4-12-19-17.1-29.2c-5.1-10.2-12.6-31.2-17.1-50.2c-4.4-19-8.5-35.6-9.5-43.1
	c-0.9-7.5-6.6-24.4,1.9-28.9c3.3-1.7,29.1-2.6,52.8,0.6C348.2,12.9,370,20,373,22.1c6,4.1,10.7,8.1,13.3,14.9
	C388.8,43.8,392.3,60.1,392.3,60.1z"/>
<g>
	<path class="st3" d="M227.1,247c0.7,0,1.4,0.3,2.2,0.9c3.9,3.3,3.2,8.7,1.2,11.3c-3.6,4.7-10.6,16.4-10.6,16.4S212,264,209.2,260
		c-2-2.8-1.7-9.6,3.4-11.7c0.4-0.2,0.8-0.2,1.1-0.2c4.2,0,5.6,10.4,5.6,10.4S222.6,247,227.1,247 M227.1,238c-3,0-5.5,1-7.6,2.7
		c-1.7-1-3.7-1.6-5.8-1.6c-1.5,0-3.1,0.3-4.5,0.9c-4.6,1.9-8,5.8-9.4,10.7c-1.5,5.1-0.7,10.7,2.1,14.6c2.7,3.8,10.5,15.3,10.6,15.4
		l8,11.9l7.3-12.3c1.8-3.1,7.2-12,9.9-15.5c4.8-6.3,5.3-17.1-2.5-23.7C232.7,239.1,230,238,227.1,238L227.1,238z"/>
</g>
<g>
	<path class="st0" d="M148.6,275.3c7.3-4.2,19.7-14.6,31.5-16.4c7.4-1.1,20.4,5.5,21.1,19.8C202,293,173,293.5,173,293.5h-67
		C106,293.5,135.5,282.8,148.6,275.3z"/>
	<line class="st0" x1="199.5" y1="271.4" x2="187.6" y2="291.2"/>
	<line class="st0" x1="193.8" y1="263" x2="178.3" y2="291.9"/>
	<line class="st0" x1="188.2" y1="259.2" x2="169.3" y2="293.5"/>
	<line class="st0" x1="181.7" y1="259.2" x2="161.4" y2="293.5"/>
	<line class="st0" x1="174.9" y1="260.3" x2="154.8" y2="293.5"/>
	<line class="st0" x1="167.9" y1="262.2" x2="148.6" y2="291.9"/>
	<line class="st0" x1="157.2" y1="271.4" x2="140.9" y2="293.5"/>
	<line class="st0" x1="147.6" y1="276.8" x2="134.8" y2="293.3"/>
	<line class="st0" x1="138.9" y1="280.6" x2="128.6" y2="293.3"/>
	<line class="st0" x1="128.4" y1="284.9" x2="122" y2="293"/>
</g>
<g>
	<path class="st0" d="M293.1,275.3c-7.3-4.2-19.7-14.6-31.5-16.5c-7.4-1.1-20.4,5.5-21.1,19.8c-0.7,14.3,28.3,14.8,28.3,14.8h67
		C335.7,293.5,306.2,282.9,293.1,275.3z"/>
	<line class="st0" x1="242.3" y1="271.4" x2="254.2" y2="290.6"/>
	<line class="st0" x1="247.9" y1="263" x2="263.5" y2="291.9"/>
	<line class="st0" x1="253.6" y1="259.2" x2="272.4" y2="293.5"/>
	<line class="st0" x1="260.1" y1="259.2" x2="280.4" y2="293.5"/>
	<line class="st0" x1="266.8" y1="260.3" x2="286.9" y2="293.5"/>
	<line class="st0" x1="273.9" y1="262.2" x2="293.2" y2="291.9"/>
	<line class="st0" x1="284.5" y1="271.4" x2="300.9" y2="293.5"/>
	<line class="st0" x1="294.2" y1="276.8" x2="307" y2="293.3"/>
	<line class="st0" x1="302.8" y1="280.7" x2="313.2" y2="293.3"/>
	<line class="st0" x1="313.3" y1="284.9" x2="319.8" y2="293"/>
</g>
<g>
	<path class="st3" d="M222.8,309.2c-1.8-5.4-2.3-12.5-2.3-12.5s-0.4,7.1-2.3,12.5c-1.8,5.2-6.8,8.2-6.8,8.2l9.1,11.9l9.1-11.9
		C229.6,317.4,224.6,314.4,222.8,309.2z"/>
	<path class="st3" d="M140.3,316.5c-1.6-4.7-2-10.9-2-10.9s-0.4,6.2-2,10.9c-1.5,4.5-5.9,7.2-5.9,7.2l7.9,10.4l7.9-10.4
		C146.3,323.7,141.9,321,140.3,316.5z"/>
	<path class="st3" d="M107.9,321.8c-1.5-4.5-1.9-10.5-1.9-10.5s-0.4,6-1.9,10.5c-1.5,4.3-5.7,6.9-5.7,6.9l7.6,10l7.6-10
		C113.6,328.7,109.3,326.2,107.9,321.8z"/>
	<path class="st3" d="M337.7,321.8c-1.5-4.5-1.9-10.5-1.9-10.5s-0.3,6-1.9,10.5c-1.5,4.3-5.7,6.9-5.7,6.9l7.6,10l7.6-10
		C343.4,328.7,339.2,326.2,337.7,321.8z"/>
	<path class="st3" d="M305.4,316.5c-1.6-4.7-2-10.9-2-10.9s-0.4,6.2-2,10.9c-1.6,4.5-5.9,7.2-5.9,7.2l7.9,10.4l7.9-10.4
		C311.3,323.7,306.9,321,305.4,316.5z"/>
	<path class="st3" d="M266.2,312.2c-1.7-4.9-2.1-11.5-2.1-11.5s-0.4,6.5-2.1,11.5c-1.6,4.7-6.2,7.5-6.2,7.5l8.3,10.9l8.3-10.9
		C272.4,319.7,267.8,316.9,266.2,312.2z"/>
	<path class="st3" d="M179.1,312.2c-1.7-4.9-2.1-11.5-2.1-11.5s-0.4,6.5-2.1,11.5c-1.6,4.7-6.2,7.5-6.2,7.5l8.3,10.9l8.3-10.9
		C185.4,319.7,180.8,316.9,179.1,312.2z"/>
</g>
<path class="st2" d="M363.2,383c-0.8-3.7-1.8-9.2-2.9-14.8c0.1-0.1,0.2-0.2,0.2-0.3l-0.3-0.2c-1.1-5.3-2.2-10.5-3.2-14
	c-2.1-7.2-4-12.3-12.8-10c-9,2.3-7,3.6-9.6,2.6c-1.1-0.4-2.5-12.8-17.3-11.3c-11.2,1.2-10.6,5.6-14.9,5.1c-5.7-0.6-5.6-7.2-18-7.3
	c-15.2-0.1-13,4.7-19,5.3c-5.7,0.6-6.7-13-23.9-13c-16,0-15.5,7.2-21.5,7.1c-5.8-0.2-4.8-7.1-20.8-7.1c-17.1,0-18.2,13.5-23.9,13
	c-6-0.6-3.8-5.4-19-5.3c-12.4,0.1-12.3,6.7-18,7.3c-4.4,0.5-3.7-3.9-15-5.1c-14.8-1.5-16.2,10.9-17.3,11.3c-2.7,0.9,1.3-1.4-7.7-3.7
	c-8.9-2.2-12.6,3.9-14.8,11.1c-1,3.4-2.1,8.6-3.2,13.9l0,0l0,0.1c-1.1,5.7-2.2,11.4-3,15.2c-1.2,5.9-1.5,13.7,7.8,16.8
	c7.7,2.6,8.2-2.4,12.4,0.3c3.4,2.3-3.8,14.4,13.7,20.2c15.3,5.1,16.3-3.3,21.9-2.3c6.1,1.1,4.7,11.6,17.8,14.2
	c14.8,2.9,16.3-4.3,22.4-2.7c4.6,1.2,3.1,17.9,22.4,20.1c17.5,2,17.7-6.2,24.2-6.4c6.7-0.2,7.6,8.3,25,6.4
	c19.3-2.2,17.7-18.9,22.4-20.1c6.2-1.6,7.6,5.6,22.4,2.7c13.1-2.6,11.7-13.1,17.8-14.2c5.6-1,6.6,7.3,21.9,2.3
	c17.5-5.8,10.3-18,13.7-20.2c4.2-2.8,4.7,2.3,12.4-0.3C364.6,396.7,364.4,388.9,363.2,383z M342.9,347.6c6.1-1.5,9.2,1.6,9.8,4.4
	c0.9,3.9,2,9.4,3.1,14.9c-2,1.5-6.7,4.2-17,7.1c-1.3-6.4-2.4-13-3.1-17.4C335.4,353.8,336.7,349.1,342.9,347.6z M316.8,342
	c10-1,14.4,4.6,15.1,9c0.9,6.3,1.9,15.2,2.9,24c-7,1.8-16.2,3.6-28.2,5.3c-1-9.7-1.9-19.4-2.3-26.1C304,349.9,306.9,343,316.8,342z
	 M266.5,351.8c0.1-5.2,4-12.9,15.9-13.1c11.8-0.2,16.6,6.8,17,12c0.5,7.9,1,19.3,1.4,30.4c-9.6,1.2-20.8,2.3-33.8,3.3
	C266.6,372.3,266.3,360.1,266.5,351.8z M223.8,347c0.3-6.7,4.9-16.6,18.1-16.3c13.2,0.3,18.3,9.6,18.5,16.4
	c0.3,9.9,0.4,23.9,0.5,37.7c-11.2,0.7-23.8,1.3-37.7,1.7C223.1,371.8,223.3,357.1,223.8,347z M198.5,330.7
	c13.2-0.3,17.9,9.6,18.2,16.3c0.5,10.1,0.6,24.9,0.6,39.7c-14,0.3-26.6,0.2-37.9-0.1c0.1-14.4,0.2-29.2,0.5-39.5
	C180.2,340.3,185.3,331,198.5,330.7z M157.9,338.7c11.8,0.2,15.8,7.9,15.9,13.1c0.2,8.7-0.1,21.8-0.5,34.5
	c-13-0.6-24.2-1.5-33.8-2.7c0.4-11.8,0.9-24.3,1.5-32.9C141.3,345.5,146.1,338.5,157.9,338.7z M108.5,351.1c0.6-4.4,5.1-10,15.1-9
	c10,1,12.8,7.9,12.5,12.3c-0.4,7.2-1.4,18-2.5,28.6c-11.8-1.7-21-3.7-28.2-5.8C106.4,367.6,107.5,357.8,108.5,351.1z M87.8,351.9
	c0.7-2.7,3.8-5.9,9.9-4.3c6.1,1.6,7.4,6.3,7,9.1c-0.7,4.8-2.1,12.2-3.6,19.2c-9.5-3-14.6-5.9-16.9-7.5
	C85.4,362.4,86.7,356.2,87.8,351.9z M88.1,394.3c-8.2-2.5-7.6-8.7-6.9-12c0.6-2.5,1.3-6,2.1-9.7c2.9,1.8,8.2,4.4,17,7.2
	c-0.7,3.4-1.4,6.6-2,9.2C97.7,391.9,96.3,396.8,88.1,394.3z M130.8,405.9c-0.6,4.8-2,12.7-15.4,10.9c-13.4-1.8-13.4-11.7-12.7-17
	c0.6-4.8,1.3-11.5,2.1-18.6c7.3,2,16.6,4.1,28.2,5.8C132.3,394,131.5,400.7,130.8,405.9z M155,426.8c-15.9-0.8-16.8-12.4-16.5-18.6
	c0.3-5.3,0.5-12.6,0.8-20.5c9.7,1.2,20.9,2.2,33.8,2.8c-0.3,8.3-0.6,16.1-0.9,22.1C171.9,418.3,170.9,427.7,155,426.8z M198.3,445.2
	c-17.8-0.3-19.2-15.3-19.1-23.3c0.1-7.9,0.2-19.2,0.2-31.2c6.6,0.2,13.6,0.3,21,0.3c5.4,0,11.1-0.1,16.9-0.2c0,13-0.2,25.7-0.3,35.1
	C216.9,433.3,216.1,445.5,198.3,445.2z M242.1,445.2c-17.8,0.3-18.6-11.9-18.7-19.2c-0.1-9.4-0.3-22.2-0.3-35.3
	c14-0.4,26.5-1,37.8-1.7c0.1,12.6,0.1,24.6,0.2,32.9C261.3,430,259.9,444.9,242.1,445.2z M285.4,426.8c-15.9,0.8-17-8.6-17.2-14.2
	c-0.3-6.5-0.7-15.1-1-24.1c13-0.9,24.2-2,33.8-3.3c0.3,8.8,0.6,17.1,0.9,22.9C302.2,414.5,301.3,426,285.4,426.8z M324.9,416.8
	c-13.4,1.8-14.8-6.1-15.4-10.9c-0.7-5.8-1.6-13.4-2.5-21.4c11.8-1.7,21.1-3.5,28.3-5.3c0.9,7.9,1.7,15.4,2.4,20.6
	C338.3,405.1,338.2,414.9,324.9,416.8z M352,394.4c-8.2,2.4-9.5-2.5-10.2-5.5c-0.6-3-1.4-6.8-2.2-10.9c9-2.5,14.1-5,17.1-6.8
	c0.9,4.3,1.7,8.4,2.3,11.2C359.7,385.7,360.2,392,352,394.4z"/>
<g>
	<path class="st3" d="M224.1,472.4c-1.8,5.4-2.3,9.2-2.3,9.2s-0.4-3.8-2.3-9.2c-1.8-5.2-6.8-8.2-6.8-8.2l9.1-11.9l9.1,11.9
		C230.9,464.2,225.8,467.2,224.1,472.4z"/>
	<path class="st3" d="M131.9,447.4c-1.6,4.7-2,10.9-2,10.9s-0.4-6.2-2-10.9c-1.5-4.5-5.9-7.2-5.9-7.2l7.9-10.4l7.9,10.4
		C137.8,440.3,133.4,442.9,131.9,447.4z"/>
	<path class="st3" d="M96.5,433.8c-1.5,4.5-1.9,10.5-1.9,10.5s-0.4-6-1.9-10.5c-1.5-4.3-5.7-6.8-5.7-6.8l7.6-10l7.6,10
		C102.2,426.9,98,429.4,96.5,433.8z"/>
	<path class="st3" d="M351.5,433.8c-1.5,4.5-1.9,10.5-1.9,10.5s-0.4-6-1.9-10.5c-1.5-4.3-5.7-6.8-5.7-6.8l7.6-10l7.6,10
		C357.2,426.9,353,429.4,351.5,433.8z"/>
	<path class="st3" d="M316.3,447.4c-1.6,4.7-2,10.9-2,10.9s-0.4-6.2-2-10.9c-1.5-4.5-5.9-7.2-5.9-7.2l7.9-10.4l7.9,10.4
		C322.2,440.3,317.8,442.9,316.3,447.4z"/>
	<path class="st3" d="M272.3,461.1c-1.7,4.9-2.1,11.5-2.1,11.5s-0.4-6.5-2.1-11.5c-1.6-4.7-6.2-7.5-6.2-7.5l8.3-10.9l8.3,10.9
		C278.5,453.6,273.9,456.4,272.3,461.1z"/>
	<path class="st3" d="M175.5,461.1c-1.7,4.9-2.1,11.5-2.1,11.5s-0.4-6.5-2.1-11.5c-1.6-4.7-6.2-7.5-6.2-7.5l8.3-10.9l8.3,10.9
		C181.8,453.6,177.1,456.4,175.5,461.1z"/>
</g>
<g>
	<path class="st3" d="M122.2,308.1c-6.2,0-6.2,10.4,0,10.4C128.4,318.5,128.4,308.1,122.2,308.1z"/>
	<path class="st3" d="M158.9,302.9c-6.2,0-6.2,10.4,0,10.4C165.2,313.3,165.2,302.9,158.9,302.9z"/>
	<path class="st3" d="M200,297.7c-6.2,0-6.2,10.4,0,10.4C206.3,308.1,206.3,297.7,200,297.7z"/>
	<path class="st3" d="M109.6,436.4c-6.2,0-6.2,10.4,0,10.4C115.9,446.8,115.9,436.4,109.6,436.4z"/>
	<path class="st3" d="M149.8,450.4c-6.2,0-6.2,10.4,0,10.4C156,460.8,156,450.4,149.8,450.4z"/>
	<path class="st3" d="M197.1,461.3c-6.2,0-6.2,10.4,0,10.4C203.4,471.7,203.4,461.3,197.1,461.3z"/>
	<path class="st3" d="M321.9,308.1c6.2,0,6.2,10.4,0,10.4C315.7,318.5,315.7,308.1,321.9,308.1z"/>
	<path class="st3" d="M285.2,302.9c6.2,0,6.2,10.4,0,10.4S278.9,302.9,285.2,302.9z"/>
	<path class="st3" d="M244.1,297.7c6.2,0,6.2,10.4,0,10.4C237.8,308.1,237.8,297.7,244.1,297.7z"/>
	<path class="st3" d="M334.5,436.4c6.2,0,6.2,10.4,0,10.4C328.2,446.8,328.2,436.4,334.5,436.4z"/>
	<path class="st3" d="M294.4,450.4c6.2,0,6.2,10.4,0,10.4C288.1,460.8,288.1,450.4,294.4,450.4z"/>
	<path class="st3" d="M247,461.4c6.2,0,6.2,10.4,0,10.4C240.7,471.7,240.7,461.4,247,461.4z"/>
</g>
<path class="st3" d="M78.6,394.9c0,0-14.9-38-25.4-70.9c-7.5-23.4-2-65.6-2-65.6s4.2-2.2,17.3,3c19.5,7.7,23.2,41.2,20.8,63.1
	C87.3,343,78.6,394.9,78.6,394.9z"/>
<path class="st3" d="M361.6,394.7c0,0,14.9-38,25.4-70.9c7.5-23.4,2-65.6,2-65.6s-4.2-2.2-17.3,3.1c-19.5,7.7-23.3,41.2-20.8,63.1
	C353,342.8,361.6,394.7,361.6,394.7z"/>
<g>
	<polygon class="st4" points="165.2,85.9 168.1,71.6 181.9,82.6 	"/>
	<polygon class="st4" points="169.4,60.5 172.3,46.1 186.2,56.6 	"/>
	<polygon class="st4" points="173.5,38.1 174.4,23.6 189.6,31.9 	"/>
	<polygon class="st4" points="158.3,106.4 163.2,92.8 175.4,105.5 	"/>
	<polygon class="st4" points="151.4,126.6 157.3,113.5 168.5,127.2 	"/>
	<polygon class="st4" points="130.3,163.7 138.6,152.2 146.9,168.2 	"/>
	<polygon class="st4" points="142.9,145.4 150.1,133.1 159.9,148.1 	"/>
	<polygon class="st4" points="288.6,107.7 294.5,120.9 277.4,121.5 	"/>
	<polygon class="st4" points="296.5,127.1 302.8,140.3 285.9,141.6 	"/>
	<polygon class="st4" points="306.6,146.7 314.6,158.5 298,162.7 	"/>
	<polygon class="st4" points="282.3,87 286.3,101 269.3,99.2 	"/>
	<polygon class="st4" points="276.2,66.5 279,80.8 262.3,77.4 	"/>
	<polygon class="st4" points="271.5,23.3 271.5,37.9 255.8,30.9 	"/>
	<polygon class="st4" points="272.4,44.2 275.1,58.4 258.4,54.9 	"/>
	<polygon class="st4" points="391.1,68.6 385.8,54.4 402.7,57.5 	"/>
	<polygon class="st4" points="384.8,48 382.5,33.9 397.5,35.7 	"/>
	<polygon class="st4" points="379.3,29.7 368.9,20.4 384,12 	"/>
	<polygon class="st4" points="393.4,90.2 390.2,75.7 406.5,81.1 	"/>
	<polygon class="st4" points="393.8,111.6 395.5,97.1 409.4,103.9 	"/>
	<polygon class="st4" points="390.5,152.9 395.8,139.5 407.6,152.7 	"/>
	<polygon class="st4" points="394.7,131.9 395.4,118.1 411,126.1 	"/>
	<polygon class="st4" points="54.3,73.2 57.6,59.1 40.7,62.2 	"/>
	<polygon class="st4" points="58.7,52.6 62.8,38.5 46,40.3 	"/>
	<polygon class="st4" points="66.1,34.4 76.4,25 61.3,16.6 	"/>
	<polygon class="st4" points="51.9,94.8 53.2,80.4 37,85.8 	"/>
	<polygon class="st4" points="49.7,116.3 49.9,101.7 34.1,108.6 	"/>
	<polygon class="st4" points="54.9,157.6 49.6,144.2 37.7,157.3 	"/>
	<polygon class="st4" points="49.4,137.2 48.1,122.7 33.1,131.4 	"/>
</g>
<g>
	<g>
		<path class="st3" d="M234.5,13c0.2,0.6,0.3,1.2,0.5,1.8c1.1,5.1-0.6,7.7-2.3,9.5c-4.7,4.9-8.5,10.8-11.6,17.1
			c-2.9-5.2-6.5-10.5-10.6-16.1c-2.9-3.9-2.2-8.7-0.9-12.2H234.5 M242.7,0h-40.9c0,0-13.1,17.7-1.8,33
			c15.2,20.5,20.6,35.3,20.6,58.5c0,0,3.7-39.4,21.5-58.2C255.6,19,242.7,0,242.7,0L242.7,0z"/>
	</g>
	<path class="st1" d="M49.8,254.6c6.1-28.7-1.6-49-36.1-46.2C24.3,235,25.2,243.5,49.8,254.6z"/>
	<g>
		<path class="st3" d="M19.4,205.4c0,0,0.1-0.8,0.2-2.3c0-0.7,0.1-1.5,0.1-2.5c0-0.5,0-1,0-1.5c0-0.5-0.1-1.1-0.1-1.7
			c-0.1-1.2-0.2-2.4-0.4-3.7c-0.1-0.7-0.2-1.3-0.3-2c-0.1-0.7-0.3-1.4-0.4-2.1c-0.3-1.4-0.7-2.8-1.1-4.2c-0.4-1.4-0.8-2.9-1.3-4.3
			c-0.5-1.4-1.2-2.8-1.9-4.1c-0.7-1.3-1.4-2.6-1.9-3.9c-0.5-1.3-0.7-2.7-0.9-4c-0.1-0.7-0.1-1.3-0.2-1.9c0-0.6-0.1-1.3-0.1-1.9
			c-0.1-2.4,0-4.6,0.3-6.3c0.1-0.8,0.2-1.5,0.3-2c0.1-0.5,0.2-0.7,0.2-0.7l1.1-0.6c0,0,0.3,0.1,0.7,0.3c0.5,0.2,1.1,0.5,1.8,0.9
			c1.5,0.9,3.4,2.3,5.2,4.3c0.9,1,1.8,2.2,2.6,3.4c0.8,1.3,1.5,2.7,2,4.3c0.9,3.1,0.7,6.8,1.1,10.2c0.1,1.7,0.2,3.5,0.2,5.2
			c0,1.7-0.1,3.4-0.3,5c-0.1,0.8-0.2,1.6-0.3,2.4c-0.1,0.8-0.3,1.5-0.4,2.3c-0.3,1.5-0.7,2.8-1.1,4.1c-0.4,1.2-0.9,2.3-1.3,3.3
			c-0.4,1-0.9,1.8-1.2,2.5c-0.7,1.2-1.2,1.9-1.2,1.9L19.4,205.4z"/>
	</g>
	<g>
		<path class="st3" d="M55.4,239.5c0,0,1.2,0.3,3.4,0.9c1.1,0.3,2.4,0.5,3.8,0.8c0.7,0.1,1.5,0.2,2.4,0.3c0.4,0,0.8,0.1,1.3,0.1
			c0.4,0,0.9,0,1.3,0c0.4,0,0.9,0,1.4,0c0.5,0,0.9-0.1,1.4-0.1c0.5,0,0.9-0.1,1.4-0.1c0.5,0,1-0.2,1.4-0.2c0.5-0.1,1-0.2,1.5-0.3
			c0.5-0.1,1-0.3,1.5-0.4c1-0.2,1.9-0.7,2.9-1c1.9-0.9,3.7-1.9,5.4-3.2c0.4-0.3,0.9-0.6,1.3-1l1.2-1.1c0.8-0.8,1.5-1.5,2.2-2.4
			c1.4-1.6,2.6-3.6,3.5-5.6c0.2-0.5,0.5-1,0.7-1.5c0.2-0.5,0.4-1,0.7-1.5c0.5-1,0.9-1.9,1.3-2.9c0.9-1.9,1.8-3.7,2.8-5.4
			c0.9-1.7,1.8-3.4,2.6-4.9c0.8-1.6,1.5-3,2.1-4.3c0.6-1.3,1.1-2.5,1.5-3.5c0.4-1,0.7-1.8,0.8-2.4c0.1-0.6,0.2-0.9,0.2-0.9l1.2-0.5
			c0,0,0.3,0.2,0.8,0.8c0.3,0.3,0.5,0.6,0.8,1.1c0.3,0.5,0.6,1,0.9,1.6c0.6,1.2,1.1,2.7,1.4,4.5c0.3,1.8,0.5,3.8,0.5,5.9
			c0,2.2-0.3,4.5-0.9,6.9c-0.5,2.4-1.4,4.9-2.6,7.3c-1.3,2.4-2.9,4.7-4.8,6.8c-0.5,0.5-1,1.1-1.5,1.6c-0.5,0.5-1,1-1.5,1.5
			c-1.1,1-2.1,2-3.3,2.9c-1.1,1-2.3,1.8-3.5,2.6c-0.6,0.4-1.2,0.8-1.9,1.1c-0.6,0.4-1.3,0.7-1.9,1c-2.5,1.4-5.3,2.2-8,2.7
			c-1.4,0.2-2.7,0.5-4,0.5c-0.6,0-1.3,0.1-1.9,0.1c-0.6,0-1.2-0.1-1.9-0.1c-0.6-0.1-1.2-0.1-1.8-0.1c-0.6-0.1-1.1-0.2-1.7-0.3
			c-0.6-0.1-1.1-0.2-1.6-0.3c-0.5-0.1-1-0.3-1.5-0.4c-0.5-0.1-1-0.3-1.4-0.4c-0.5-0.1-0.9-0.3-1.3-0.5c-0.9-0.3-1.7-0.6-2.4-1
			c-1.5-0.7-2.8-1.3-3.7-1.9c-1.9-1.2-3-1.9-3-1.9L55.4,239.5z"/>
	</g>
	<g>
		<path class="st3" d="M52.6,223.2c0,0,0.2-0.1,0.6-0.1c0.2,0,0.4-0.1,0.7-0.2c0.3-0.1,0.6-0.2,0.9-0.3c0.7-0.2,1.5-0.5,2.4-0.9
			c0.5-0.2,0.9-0.5,1.4-0.7c0.5-0.3,1-0.5,1.5-0.9c1-0.6,2-1.4,3-2.3c1-0.9,1.9-1.9,2.6-3c1.6-2.2,2.7-4.7,3.1-7.3
			c0.2-1.3,0.1-2.6-0.1-3.9c-0.1-0.7-0.2-1.3-0.4-1.9c-0.1-0.6-0.2-1.2-0.3-1.8c-0.1-1.2-0.2-2.5-0.1-3.7c0-1.2,0-2.5,0-3.7
			c0-0.6,0-1.2,0.1-1.8c0-0.6,0.1-1.2,0.1-1.7c0-1.1,0.2-2.1,0.2-2.9c0.1-0.9,0.2-1.6,0.3-2c0.1-0.5,0.2-0.8,0.2-0.8l1.1-0.6
			c0,0,0.3,0.1,0.7,0.3c0.5,0.2,1.1,0.6,1.9,1c0.8,0.5,1.6,1.1,2.5,2c0.9,0.8,1.9,1.8,2.7,3.1c0.4,0.6,0.9,1.3,1.3,2
			c0.4,0.7,0.8,1.5,1.1,2.3c0.3,0.8,0.6,1.7,0.9,2.6c0.2,0.9,0.4,1.9,0.5,2.9c0.2,2-0.2,4.1-0.7,6.2c-0.6,2.1-1.4,4.1-2.2,6.1
			c-0.9,1.9-2,3.8-3.3,5.4c-1.3,1.6-2.8,3-4.3,4.1c-1.6,1.1-3.1,2-4.7,2.7c-1.6,0.6-3.1,1.1-4.5,1.4c-1.4,0.3-2.7,0.4-3.8,0.5
			c-1.1,0.1-2.1,0-2.9-0.1c-0.4,0-0.8-0.1-1.1-0.1c-0.3-0.1-0.5-0.1-0.7-0.1c-0.4-0.1-0.6-0.1-0.6-0.1L52.6,223.2z"/>
	</g>
	<g>
		<path class="st3" d="M40.1,209.1c0,0,0.2-0.1,0.5-0.4c0.3-0.3,0.8-0.6,1.3-1.1c0.4-0.5,1-1,1.5-1.8c0.1-0.2,0.3-0.4,0.4-0.5
			c0.1-0.2,0.2-0.4,0.3-0.6c0.1-0.2,0.2-0.4,0.3-0.6c0.1-0.2,0.2-0.5,0.3-0.7c0.1-0.2,0.2-0.5,0.3-0.7c0.1-0.3,0.1-0.5,0.2-0.8
			c0.1-0.5,0.2-1.1,0.2-1.7c0.1-0.6,0-1.2,0-1.8c-0.1-0.6-0.1-1.3-0.2-1.9c-0.1-0.7-0.2-1.3-0.3-2c-0.1-0.3-0.1-0.7-0.2-1l-0.3-1
			c-0.4-1.4-0.8-2.8-1.3-4.2c-0.5-1.4-1.2-2.8-2-4.1c-0.4-0.7-0.7-1.3-1.1-2c-0.3-0.7-0.6-1.3-0.9-2c-0.5-1.3-0.8-2.7-1.1-4
			c-0.2-1.3-0.4-2.6-0.5-3.9c-0.2-2.5-0.1-4.7,0.1-6.4c0.1-0.8,0.2-1.5,0.3-2c0.1-0.5,0.2-0.7,0.2-0.7l1.1-0.6c0,0,0.3,0.1,0.7,0.3
			c0.5,0.2,1.1,0.5,1.9,0.9c1.5,0.9,3.4,2.3,5.3,4.2c0.5,0.5,0.9,1,1.4,1.6c0.4,0.6,0.9,1.2,1.3,1.8c0.8,1.3,1.6,2.7,2.1,4.2
			c0.5,1.6,0.8,3.3,0.9,5.1c0.2,1.8,0.3,3.6,0.4,5.4c0.1,1.8,0.3,3.6,0.2,5.5c0,0.5,0,0.9-0.1,1.4c0,0.5-0.1,0.9-0.1,1.4
			c-0.1,0.9-0.3,1.8-0.4,2.7c-0.2,0.9-0.4,1.7-0.7,2.6c-0.3,0.8-0.6,1.6-1,2.4c-0.4,0.8-0.7,1.5-1.2,2.2c-0.2,0.3-0.4,0.7-0.6,1
			c-0.2,0.3-0.5,0.6-0.7,0.9c-0.2,0.3-0.5,0.6-0.7,0.8c-0.3,0.2-0.5,0.4-0.8,0.7c-0.3,0.2-0.5,0.4-0.7,0.6c-0.3,0.2-0.5,0.3-0.8,0.5
			c-0.9,0.6-1.9,1-2.7,1.3c-0.7,0.3-1.3,0.3-1.7,0.4c-0.4,0.1-0.6,0.1-0.6,0.1L40.1,209.1z"/>
	</g>
	<path class="st1" d="M389.7,253.8c-6.1-28.7,1.6-48.9,36.1-46.2C415.3,234.2,414.3,242.7,389.7,253.8z"/>
	<g>
		<path class="st3" d="M418.9,205c0,0-0.4-0.7-1.2-1.9c-0.3-0.7-0.8-1.5-1.2-2.5c-0.4-1-0.9-2.1-1.3-3.3c-0.4-1.2-0.8-2.6-1.1-4.1
			c-0.2-0.7-0.3-1.5-0.4-2.3c-0.1-0.8-0.2-1.6-0.3-2.4c-0.2-1.6-0.3-3.3-0.3-5c0-1.7,0.1-3.5,0.2-5.2c0.3-3.4,0.1-7.1,1.1-10.2
			c0.5-1.6,1.2-3,2-4.3c0.8-1.3,1.7-2.4,2.6-3.4c1.8-2,3.7-3.4,5.2-4.3c0.8-0.4,1.4-0.8,1.8-0.9c0.4-0.2,0.7-0.3,0.7-0.3l1.1,0.6
			c0,0,0.1,0.3,0.2,0.7c0.1,0.5,0.2,1.1,0.3,2c0.2,1.6,0.4,3.9,0.3,6.3c0,0.6-0.1,1.2-0.1,1.9c-0.1,0.6-0.1,1.3-0.2,1.9
			c-0.2,1.3-0.4,2.7-0.9,4c-0.4,1.3-1.2,2.6-1.9,3.9c-0.7,1.3-1.4,2.7-1.9,4.1c-0.5,1.4-0.9,2.9-1.3,4.3c-0.4,1.4-0.8,2.9-1.1,4.2
			c-0.2,0.7-0.3,1.4-0.4,2.1c-0.1,0.7-0.2,1.3-0.3,2c-0.2,1.3-0.3,2.6-0.4,3.7c0,0.6-0.1,1.1-0.1,1.7c0,0.5,0,1,0,1.5
			c0,1,0.1,1.8,0.1,2.5c0.1,1.4,0.2,2.3,0.2,2.3L418.9,205z"/>
	</g>
	<g>
		<path class="st3" d="M384.7,239.9c0,0-1.1,0.7-3,1.9c-1,0.6-2.3,1.2-3.7,1.9c-0.7,0.3-1.6,0.6-2.4,1c-0.4,0.2-0.9,0.4-1.3,0.5
			c-0.5,0.1-1,0.3-1.4,0.4c-0.5,0.1-1,0.3-1.5,0.4c-0.5,0.1-1.1,0.2-1.6,0.3c-0.6,0.1-1.1,0.2-1.7,0.3c-0.6,0.1-1.2,0.1-1.8,0.1
			c-0.6,0-1.2,0.1-1.9,0.1c-0.6,0-1.3-0.1-1.9-0.1c-1.3,0-2.6-0.3-4-0.5c-2.6-0.6-5.4-1.4-8-2.7c-0.7-0.3-1.3-0.6-1.9-1
			c-0.6-0.4-1.3-0.7-1.9-1.1c-1.2-0.8-2.4-1.7-3.5-2.6c-1.1-0.9-2.2-1.9-3.3-2.9c-0.5-0.5-1-1-1.5-1.5c-0.5-0.5-1-1-1.5-1.6
			c-2-2.1-3.6-4.4-4.8-6.8c-1.2-2.4-2.1-4.9-2.6-7.3c-0.5-2.4-0.8-4.7-0.9-6.9c-0.1-2.1,0.1-4.2,0.5-5.9c0.4-1.8,0.8-3.3,1.4-4.5
			c0.3-0.6,0.6-1.1,0.9-1.6c0.3-0.5,0.5-0.8,0.8-1.1c0.5-0.6,0.8-0.8,0.8-0.8l1.2,0.5c0,0,0.1,0.3,0.2,0.9c0.2,0.6,0.4,1.4,0.8,2.4
			c0.4,1,0.9,2.2,1.5,3.5c0.6,1.3,1.3,2.8,2.1,4.3c0.8,1.6,1.7,3.2,2.6,4.9c1,1.7,1.9,3.5,2.8,5.4c0.5,0.9,0.9,1.9,1.3,2.9
			c0.2,0.5,0.4,1,0.7,1.5c0.2,0.5,0.5,1,0.7,1.5c1,2,2.1,3.9,3.5,5.6c0.7,0.9,1.5,1.6,2.2,2.4l1.2,1.1c0.4,0.4,0.8,0.7,1.3,1
			c1.7,1.3,3.5,2.3,5.4,3.2c1,0.3,1.9,0.8,2.9,1c0.5,0.1,1,0.3,1.5,0.4c0.5,0.1,1,0.2,1.5,0.3c0.5,0.1,1,0.2,1.4,0.2
			c0.5,0,1,0.1,1.4,0.1c0.5,0,0.9,0.1,1.4,0.1c0.5,0,0.9,0,1.4,0c0.4,0,0.9,0,1.3,0c0.4,0,0.8-0.1,1.3-0.1c0.8-0.1,1.6-0.2,2.4-0.3
			c1.4-0.3,2.7-0.5,3.8-0.8c2.2-0.6,3.4-0.9,3.4-0.9L384.7,239.9z"/>
	</g>
	<g>
		<path class="st3" d="M386.9,223.8c0,0-0.2,0-0.6,0.1c-0.2,0-0.5,0.1-0.7,0.1c-0.3,0-0.7,0.1-1.1,0.1c-0.8,0.1-1.8,0.1-2.9,0.1
			c-1.1-0.1-2.4-0.2-3.8-0.5c-1.4-0.3-2.9-0.8-4.5-1.4c-1.6-0.6-3.1-1.6-4.7-2.7c-1.5-1.1-3.1-2.5-4.3-4.1c-1.3-1.6-2.4-3.4-3.3-5.4
			c-0.9-2-1.6-4-2.2-6.1c-0.5-2.1-0.9-4.2-0.7-6.2c0-1,0.3-1.9,0.5-2.9c0.2-0.9,0.6-1.8,0.9-2.6c0.3-0.8,0.8-1.6,1.1-2.3
			c0.4-0.7,0.8-1.4,1.3-2c0.9-1.2,1.8-2.2,2.7-3.1c0.9-0.8,1.8-1.5,2.5-2c0.8-0.5,1.4-0.8,1.9-1c0.5-0.2,0.7-0.3,0.7-0.3l1.1,0.6
			c0,0,0.1,0.3,0.2,0.8c0.1,0.5,0.2,1.2,0.3,2c0.1,0.8,0.2,1.9,0.2,2.9c0,0.5,0.1,1.1,0.1,1.7c0,0.6,0,1.2,0.1,1.8
			c0,1.2,0.1,2.5,0,3.7c0,1.2,0,2.5-0.1,3.7c-0.1,0.6-0.2,1.2-0.3,1.8c-0.2,0.6-0.2,1.2-0.4,1.9c-0.2,1.3-0.3,2.6-0.1,3.9
			c0.5,2.6,1.5,5.1,3.1,7.3c0.8,1.1,1.7,2.1,2.6,3c1,0.9,2,1.7,3,2.3c0.5,0.3,1,0.6,1.5,0.9c0.5,0.2,0.9,0.5,1.4,0.7
			c0.9,0.4,1.7,0.7,2.4,0.9c0.3,0.1,0.6,0.2,0.9,0.3c0.3,0.1,0.5,0.1,0.7,0.2c0.4,0.1,0.6,0.1,0.6,0.1L386.9,223.8z"/>
	</g>
	<g>
		<path class="st3" d="M398.9,209.5c0,0-0.2,0-0.6-0.1c-0.4-0.1-0.9-0.2-1.7-0.4c-0.7-0.3-1.7-0.7-2.7-1.3c-0.2-0.2-0.5-0.3-0.8-0.5
			c-0.2-0.2-0.5-0.4-0.7-0.6c-0.3-0.2-0.5-0.4-0.8-0.7c-0.3-0.2-0.5-0.5-0.7-0.8c-0.2-0.3-0.5-0.6-0.7-0.9c-0.2-0.3-0.4-0.6-0.6-1
			c-0.5-0.7-0.8-1.4-1.2-2.2c-0.4-0.8-0.6-1.6-1-2.4c-0.2-0.8-0.5-1.7-0.7-2.6c-0.2-0.9-0.3-1.8-0.4-2.7c0-0.4-0.1-0.9-0.1-1.4
			c0-0.5,0-0.9-0.1-1.4c-0.1-1.8,0-3.6,0.2-5.5c0.2-1.8,0.3-3.6,0.4-5.4c0.2-1.8,0.4-3.5,0.9-5.1c0.5-1.6,1.3-3,2.1-4.2
			c0.4-0.6,0.9-1.2,1.3-1.8c0.5-0.6,0.9-1.1,1.4-1.6c1.8-2,3.8-3.4,5.3-4.2c0.8-0.4,1.4-0.7,1.9-0.9c0.5-0.2,0.7-0.3,0.7-0.3
			l1.1,0.6c0,0,0.1,0.3,0.2,0.7c0.1,0.5,0.2,1.2,0.3,2c0.2,1.7,0.3,3.9,0.1,6.4c-0.1,1.2-0.3,2.5-0.5,3.9c-0.2,1.3-0.6,2.7-1.1,4
			c-0.3,0.7-0.6,1.3-0.9,2c-0.4,0.6-0.7,1.3-1.1,2c-0.8,1.3-1.4,2.7-2,4.1c-0.5,1.4-0.9,2.8-1.3,4.2l-0.3,1c-0.1,0.3-0.1,0.7-0.2,1
			c-0.2,0.7-0.2,1.3-0.3,2c-0.1,0.7-0.1,1.3-0.2,1.9c0,0.6,0,1.2,0,1.8c0.1,0.6,0.1,1.2,0.2,1.7c0.1,0.3,0.1,0.5,0.2,0.8
			c0.1,0.2,0.2,0.5,0.3,0.7c0.1,0.2,0.2,0.5,0.3,0.7c0.1,0.2,0.2,0.4,0.3,0.6c0.1,0.2,0.2,0.4,0.3,0.6c0.1,0.2,0.3,0.4,0.4,0.5
			c0.5,0.8,1,1.3,1.5,1.8c0.5,0.5,1,0.8,1.3,1.1c0.3,0.2,0.5,0.4,0.5,0.4L398.9,209.5z"/>
	</g>
</g>
<g>
	<path class="st3" d="M371.1,386.4c1-2,2-3.9,3-5.8c1-1.9,2-3.9,3-5.8c1-1.9,1.9-3.9,2.9-5.8c0.9-2,1.9-3.9,2.8-5.8
		c1.8-3.9,3.5-7.8,5.1-11.7c0.4-1,0.8-2,1.2-3c0.4-1,0.8-2,1.2-3c0.7-2,1.5-4,2.1-6c0.7-2,1.3-4,1.9-6c0.6-2,1.2-4,1.7-6.1
		c0.3-1,0.5-2,0.8-3c0.2-1,0.5-2,0.7-3.1c0.4-2,0.8-4.1,1.2-6.1c0.3-2.1,0.6-4.1,0.9-6.2c0.3-2.1,0.4-4.1,0.5-6.2
		c0.1-2.1,0.2-4.1,0.1-6.2c0-1-0.1-2-0.1-3c0-0.5-0.1-1-0.1-1.5l-0.1-0.7l-0.1-0.6l-0.1-0.7c0-0.5,0-0.7,0-1.1c0-0.3,0-0.6,0.1-0.9
		c0.1-0.6,0.1-1.2,0.2-1.8c0.2-1.2,0.4-2.4,0.7-3.6c0.5-2.3,1.3-4.6,2.3-6.8c1-2.2,2.1-4.3,3.4-6.3l1-1.5l1.1-1.4
		c0.8-0.9,1.6-1.8,2.4-2.6c0.8-0.8,1.7-1.6,2.6-2.4c0.9-0.7,1.9-1.4,2.8-2c1-0.7,2-1.2,3-1.8c1-0.5,2-1.1,3.1-1.5l1.6-0.6l1.6-0.5
		c1.1-0.4,2.2-0.6,3.2-0.9c1.1-0.3,2.2-0.5,3.3-0.7c1.1-0.2,2.2-0.3,3.3-0.4l-3.1,1.2c-1,0.5-2,0.9-3,1.4c-1,0.5-2,0.9-2.9,1.5
		l-1.4,0.8l-1.3,0.9c-0.9,0.5-1.7,1.2-2.6,1.8c-0.8,0.7-1.7,1.3-2.4,2c-0.8,0.7-1.5,1.5-2.2,2.2c-0.7,0.8-1.4,1.5-2,2.4
		c-0.6,0.8-1.2,1.7-1.8,2.5l-0.8,1.3l-0.7,1.3c-0.9,1.8-1.7,3.7-2.3,5.6c-0.6,1.9-1.1,3.9-1.4,5.9c-0.2,1-0.2,2-0.3,3
		c0,0.5,0,1,0,1.5l0,0.7c0,0.2,0,0.5,0,0.6l-0.1-0.7c0.1,0.4,0.2,0.7,0.2,1l0.2,0.9c0.1,0.6,0.2,1.2,0.3,1.7
		c0.2,1.2,0.3,2.3,0.4,3.5c0.2,2.3,0.3,4.6,0.3,6.9c0,2.3-0.1,4.5-0.3,6.8c-0.2,2.3-0.5,4.5-0.8,6.7c-0.3,2.2-0.7,4.5-1.2,6.6
		c-0.2,1.1-0.5,2.2-0.8,3.3c-0.3,1.1-0.5,2.2-0.9,3.3c-0.6,2.2-1.3,4.3-2,6.4c-0.7,2.1-1.5,4.2-2.4,6.3c-0.8,2.1-1.8,4.1-2.7,6.1
		c-1,2-1.9,4-3,6l-1.6,2.9c-0.5,1-1.1,1.9-1.7,2.9c-0.6,0.9-1.1,1.9-1.7,2.8l-1.8,2.8c-1.2,1.9-2.5,3.6-3.8,5.4
		c-1.3,1.8-2.7,3.5-4,5.2c-1.4,1.7-2.8,3.4-4.3,5C374.2,383.3,372.6,384.9,371.1,386.4z"/>
</g>
<g>
	<path class="st3" d="M71.4,385.1c0,0-0.4-0.4-1.3-1.3c-0.8-0.9-2-2.1-3.5-3.7c-1.4-1.7-3.2-3.6-5.1-6c-0.9-1.2-2-2.5-3-3.8
		c-1-1.4-2.1-2.8-3.2-4.4c-1.1-1.6-2.2-3.2-3.3-4.9c-1.1-1.7-2.2-3.5-3.3-5.3c-2.2-3.7-4.4-7.7-6.5-12c-1-2.1-2-4.3-3-6.6
		c-1-2.2-1.9-4.6-2.8-6.9c-1.7-4.7-3.3-9.5-4.5-14.5c-1.2-5-2.1-10-2.7-15.1c-0.2-2.5-0.4-5-0.4-7.6c0-1.3,0-2.5,0.1-3.8
		c0.1-0.8,0.1-1,0.1-1.5c0-0.5,0-1,0-1.5c-0.2-4.2-1.1-8.2-2.6-11.8c-0.7-1.8-1.6-3.5-2.5-5.1c-0.5-0.8-1-1.5-1.5-2.3
		c-0.6-0.7-1.1-1.4-1.6-2.1c-2.2-2.7-4.7-4.8-7.1-6.5c-2.4-1.6-4.6-3-6.6-3.9c-1.9-0.9-3.5-1.6-4.6-2c-1.1-0.4-1.7-0.7-1.7-0.7
		s0.6,0.1,1.8,0.2c1.2,0.1,2.9,0.4,5,1c1.1,0.3,2.3,0.6,3.5,1.1c1.3,0.4,2.6,1,4.1,1.6c2.8,1.3,5.9,3.2,8.9,5.8c3,2.6,5.8,6,8,10.1
		c2.2,4.1,3.7,8.8,4.4,13.8c0.1,0.6,0.2,1.3,0.2,2c0.1,0.6,0,1.7,0,2c0,1,0.1,2.2,0.2,3.3c0.2,2.2,0.4,4.5,0.8,6.8
		c0.7,4.6,1.7,9.3,2.9,13.9c1.2,4.6,2.6,9.2,4.1,13.7c0.8,2.2,1.6,4.5,2.4,6.6c0.8,2.2,1.7,4.3,2.5,6.4c0.9,2.1,1.7,4.2,2.6,6.2
		c0.9,2,1.7,4,2.6,5.9c1.7,3.8,3.5,7.4,5.1,10.7c1.7,3.3,3.2,6.3,4.6,9c0.7,1.3,1.4,2.6,2,3.7c0.6,1.2,1.2,2.2,1.7,3.2
		C70.3,382.9,71.4,385.1,71.4,385.1z"/>
</g>
<path class="st3" d="M107.1,248.2c-8.8,0-16.1,7.9-16.1,17.3c0,9.5,7.3,17.3,16.1,17.3c8.8,0,16.1-7.9,16.1-17.3
	C123.2,256.1,115.8,248.2,107.1,248.2z"/>
<path class="st3" d="M137.4,224.3c-7.6,0-13.9,6.8-13.9,15c0,8.2,6.3,15,13.9,15c7.6,0,13.9-6.8,13.9-15
	C151.4,231.1,145,224.3,137.4,224.3z"/>
<path class="st3" d="M118.4,176.4c-4.6,0-8.4,4.1-8.4,9c0,4.9,3.8,9,8.4,9c4.6,0,8.4-4.1,8.4-9C126.8,180.5,123,176.4,118.4,176.4z"
	/>
<path class="st3" d="M141.3,192c-6.1,0-11.2,5.5-11.2,12c0,6.5,5.1,12,11.2,12c6.1,0,11.1-5.5,11.1-12
	C152.4,197.5,147.3,192,141.3,192z"/>
<path class="st3" d="M335.2,248.2c8.8,0,16.1,7.9,16.1,17.3c0,9.5-7.3,17.3-16.1,17.3c-8.8,0-16.1-7.9-16.1-17.3
	C319.1,256.1,326.4,248.2,335.2,248.2z"/>
<path class="st3" d="M304.8,224.3c7.6,0,13.9,6.8,13.9,15c0,8.2-6.3,15-13.9,15c-7.6,0-13.9-6.8-13.9-15
	C290.9,231.1,297.2,224.3,304.8,224.3z"/>
<path class="st3" d="M323.8,176.3c4.6,0,8.4,4.1,8.4,9c0,4.9-3.8,9-8.4,9c-4.5,0-8.4-4.1-8.4-9C315.5,180.4,319.3,176.3,323.8,176.3
	z"/>
<path class="st3" d="M301,192c6.1,0,11.1,5.5,11.1,12c0,6.6-5.1,12-11.1,12c-6.1,0-11.1-5.5-11.1-12C289.8,197.4,294.9,192,301,192z
	"/>
<g>
	<path class="st3" d="M4.9,140.6c0,0-1.1-9.3-2.7-23.2c-0.8-7-1.8-15.1-2.1-24c-0.2-4.5,0-9.2,0.8-14c0.4-2.4,1-4.8,1.7-7.2
		C3,71,3.4,69.8,3.9,68.6c0.2-0.6,0.5-1.2,0.7-1.7l0.1-0.2l0-0.1l0-0.1l0.1-0.1L5,66c0.1-0.1,0.1-0.3,0.2-0.5L5.5,65
		c1.4-2.5,3.3-4.8,5.7-6.5c2.4-1.7,5.3-3.1,8.7-3.3c1.6-0.1,3.4,0.1,5,0.6c1.7,0.5,3.2,1.5,4.5,2.6c2.6,2.3,4,5.4,4.6,8.1
		c0.6,2.8,0.6,5.4,0.4,7.8c-0.1,1.2-0.3,2.4-0.5,3.5l-0.2,0.8l-0.1,0.4l0,0.2l0,0l0,0.1l-0.1,0.2l-0.2,0.7l-0.2,0.5
		c-0.1,0.3-0.3,0.7-0.4,1c-1.2,2.4-2.8,4.4-4.9,5.9c-1.1,0.8-2.3,1.4-3.7,1.8c-1.4,0.4-2.9,0.4-4.3,0.1c-1.4-0.3-2.5-0.9-3.5-1.6
		c-0.9-0.6-1.7-1.5-2.2-2c-0.7-0.8-1.3-1.6-1.8-2.4c-0.5-0.9-0.9-1.8-1.1-2.7c-0.4-1.9-0.2-3.9,0.5-5.3c0.7-1.5,1.8-2.5,2.8-3.2
		c2.1-1.4,4-1.6,5.3-1.4c0.6,0.1,1.1,0.2,1.4,0.3c0.3,0.1,0.4,0.2,0.4,0.2l-0.3,0.9c0,0-0.1,0-0.4,0c-0.3,0-0.6,0-1.1,0.1
		c-0.9,0.2-2.3,0.9-3.3,2.2c-0.5,0.6-0.9,1.4-1.1,2.3c-0.1,0.8,0,1.7,0.4,2.5c0.2,0.4,0.5,0.8,0.9,1.2c0.4,0.4,0.8,0.8,1.3,1.1
		c0.7,0.5,1.1,0.8,1.6,1c0.5,0.2,0.9,0.3,1.3,0.3c0.4,0,0.7-0.1,1-0.3c0.3-0.2,0.7-0.5,1.1-0.9c0.8-0.8,1.6-2.1,2-3.3
		c0.1-0.2,0.1-0.3,0.1-0.4l0-0.2c0,0,0,0,0,0l0-0.2l0-0.1l0,0c0-0.1,0,0.1,0,0.1l0-0.3l0.1-0.7c0.1-0.9,0.1-1.8,0.1-2.7
		c0-1.8-0.1-3.5-0.6-5c-0.4-1.5-1.1-2.7-1.8-3.4c-0.8-0.7-1.7-1.1-3-1.2c-1.3,0-2.8,0.4-4.3,1.2c-1.4,0.8-2.7,2.1-3.8,3.6
		c-0.4,0.6-1,1.7-1.5,2.6c-0.5,1-0.9,1.9-1.3,2.9c-0.8,2-1.4,4-1.9,6.1c-1,4.2-1.4,8.5-1.7,12.8C5.5,97.8,5.5,102,5.5,106
		c0,4,0.1,7.8,0.1,11.3c0.1,7,0.2,12.8,0.2,16.9c0,4.1,0,6.4,0,6.4L4.9,140.6z"/>
</g>
<path class="st3" d="M22.8,70.5c-10.3-1.4-12.3,15.8-2,17.2C31,89.1,33.1,71.9,22.8,70.5z"/>
<g>
	<path class="st3" d="M2.5,107.1c0,0-0.1-0.7-0.2-1.9c-0.2-1.2-0.4-3-0.6-5.4c-0.2-2.3-0.4-5.1-0.5-8.4C1,88.2,0.9,84.6,0.9,80.6
		c0-4,0.2-8.3,0.4-12.9c0.3-4.6,0.7-9.4,1.4-14.4c0.7-5,1.4-10.1,2.6-15.3c1.1-5.2,2.5-10.4,4.4-15.6c0.5-1.3,1-2.6,1.7-3.9
		c0.3-0.7,0.7-1.3,1-2c0.4-0.7,0.7-1.3,1.2-2c1.8-2.6,4.3-5,7.2-6.5c2.9-1.5,6.4-2.4,10.1-1.9C32.7,6.4,34.6,7,36.2,8
		c1.6,1,3,2.4,4.1,3.9c1,1.5,1.7,3.2,2.1,4.9c0.4,1.6,0.5,3.2,0.4,4.7c-0.1,3-0.8,5.7-1.7,8.1c-0.2,0.6-0.5,1.2-0.7,1.8L40,32.3
		l-0.1,0.2l-0.1,0.2l0,0.1l-0.3,0.5l-0.2,0.4l-0.2,0.3c-0.1,0.2-0.2,0.3-0.3,0.5c-0.2,0.3-0.5,0.6-0.7,0.9c-0.5,0.6-1,1.1-1.5,1.6
		c-1,1-2.2,1.8-3.4,2.4C32,40,30.5,40.5,29,40.6c-1.6,0.1-3.2-0.1-4.6-0.8c-1.4-0.6-2.4-1.5-3.3-2.5c-0.4-0.5-0.8-0.9-1.1-1.4
		c-0.4-0.6-0.4-0.7-0.8-1.3c-0.6-1-0.9-1.9-1.2-2.9c-0.6-2-0.5-4.2,0.3-6c0.8-1.8,2.1-3,3.3-3.7c2.5-1.4,4.8-1.1,6.2-0.7
		c0.7,0.2,1.1,0.5,1.4,0.7c0.3,0.2,0.4,0.3,0.4,0.3l-0.4,0.8c0,0-0.1,0-0.4-0.1c-0.3,0-0.7-0.1-1.3-0.1c-0.5,0-1.2,0.1-1.9,0.4
		c-0.7,0.3-1.5,0.7-2.1,1.4c-0.6,0.6-1.1,1.5-1.2,2.4c-0.1,0.9,0.1,1.8,0.7,2.8c0.1,0.3,0.3,0.5,0.5,0.8c0.2,0.3,0.4,0.5,0.6,0.7
		c0.1,0.2,0.6,0.7,0.7,0.8c0.2,0.2,0.5,0.4,0.7,0.6c0.5,0.3,0.9,0.6,1.3,0.6c0.4,0.1,0.7,0,1.1-0.1c0.8-0.2,2-1,2.9-2.2
		c0.2-0.3,0.5-0.6,0.6-0.9c0.1-0.1,0.2-0.3,0.2-0.4c0-0.1,0.1-0.1,0.1-0.2l0-0.1l0,0c0,0,0,0,0,0l0.1-0.2l0-0.1c-0.1,0.2,0,0,0,0.1
		l0,0l0.1-0.2l0.2-0.7c0.1-0.5,0.3-0.9,0.4-1.4c0.5-1.9,0.8-3.8,0.8-5.6c0-1.8-0.4-3.3-1.1-4.3c-0.3-0.5-0.7-0.9-1.2-1.3
		c-0.5-0.4-1.1-0.6-1.8-0.8c-1.4-0.3-3.2-0.2-5,0.5c-0.9,0.3-1.7,0.8-2.5,1.4c-0.4,0.3-0.8,0.6-1.1,1l-0.2,0.2l-0.3,0.4
		c-0.1,0.1-0.3,0.4-0.5,0.5c-0.3,0.4-0.6,0.9-0.9,1.3c-0.3,0.5-0.6,1-0.9,1.5c-0.6,1-1.1,2.1-1.6,3.3c-2,4.6-3.6,9.5-5,14.4
		c-1.4,4.9-2.5,9.8-3.5,14.6C7,59,6.2,63.6,5.6,68.1c-0.6,4.5-1.1,8.7-1.5,12.6c-0.7,7.8-0.8,14.4-0.9,19c0,2.3,0,4.1,0.1,5.3
		c0,1.2,0.1,1.9,0.1,1.9L2.5,107.1z"/>
</g>
<path class="st3" d="M31,21.7c-9.8-3.8-15.2,12.5-5.5,16.3C35.3,41.8,40.7,25.5,31,21.7z"/>
<g>
	<path class="st3" d="M435.6,140.5c0,0,0-2.2,0-6.2c0-3.9,0-9.5,0.1-16.2c0-3.3,0.1-7,0.1-10.8c0-3.8,0-7.8-0.1-12
		c-0.2-4.1-0.5-8.3-1.3-12.4c-0.8-4.1-2-8-3.9-11.7c-0.5-0.9-1-1.9-1.5-2.5c-0.5-0.7-1.1-1.4-1.7-1.9c-1.2-1.1-2.6-1.9-3.7-2.1
		c-0.6-0.1-1-0.1-1.4,0c-0.3,0.1-0.6,0.2-0.8,0.4c-0.5,0.4-1.1,1.4-1.4,2.8c-0.4,1.4-0.5,3.1-0.5,4.8c0,1.7,0.2,3.5,0.4,5.3
		c0.2,1.7,0.5,3.2,0.9,4.1c0.2,0.4,0.3,0.5,0.1,0.5c-0.1,0-0.2,0-0.2,0.1c0,0,0.1,0.1,0.2,0.1c0.3,0,0.8-0.2,1.4-0.5l0.2-0.1
		l0.1-0.1l0,0c0,0,0.1-0.1,0,0l0.1,0l0.5-0.3l0.2-0.2l0.2-0.1l0.3-0.2c0.9-0.8,1.5-1.5,1.9-2.3c0.3-0.8,0.4-1.6,0.2-2.4
		c-0.2-0.8-0.6-1.6-1.1-2.2c-1-1.3-2.3-1.8-3.2-2c-0.5-0.1-0.8-0.1-1.1-0.1c-0.2,0-0.4,0-0.4,0l-0.3-0.9c0,0,0.1-0.1,0.4-0.2
		c0.3-0.1,0.7-0.2,1.3-0.3c1.2-0.2,3,0,5.1,1.2c1,0.6,2,1.6,2.8,2.9c0.8,1.3,1.2,3.2,0.9,5c-0.3,1.9-1.2,3.6-2.3,5.1l-0.5,0.6
		l-0.3,0.3l-0.2,0.2l-0.4,0.4l-0.6,0.6c-0.7,0.7-1.6,1.4-2.9,1.9c-0.6,0.3-1.4,0.5-2.3,0.6c-0.9,0.1-1.9,0-2.8-0.4
		c-0.9-0.3-1.7-0.9-2.3-1.4c-0.6-0.6-1.1-1.1-1.5-1.7c-1.5-2.3-2.1-4.4-2.7-6.5c-0.5-2-0.9-4.2-1.1-6.5c-0.2-2.3-0.2-4.8,0.4-7.4
		c0.3-1.3,0.8-2.7,1.5-4.1c0.8-1.4,1.8-2.8,3.3-3.9c1.5-1.1,3.3-1.9,5.1-2.1c1.8-0.2,3.6,0,5.1,0.5c3.1,1,5.5,2.9,7.3,5
		c0.9,1.1,1.7,2.2,2.4,3.4c0.8,1.3,1.1,2.3,1.6,3.5c1.9,4.5,3,9.2,3.6,13.8c0.5,4.6,0.5,9.1,0.3,13.4c-0.4,8.5-1.4,16.3-2.2,23
		c-1.5,13.3-2.6,22.2-2.6,22.2L435.6,140.5z"/>
</g>
<path class="st3" d="M421.1,70.4c10.3-1.4,12.4,15.8,2,17.2C412.9,89,410.8,71.8,421.1,70.4z"/>
<g>
	<path class="st3" d="M438,106.9c0,0,0-0.7,0.1-1.9c0-1.2,0.1-3.1,0.1-5.3c0-4.6-0.1-11.2-0.9-19c-0.3-3.9-0.8-8.2-1.5-12.6
		c-0.6-4.5-1.4-9.1-2.4-13.9c-1-4.8-2.1-9.7-3.5-14.6c-1.4-4.9-2.9-9.9-5-14.4c-0.5-1.1-1.1-2.2-1.6-3.3c-0.3-0.5-0.6-1-0.9-1.5
		c-0.3-0.4-0.6-1-0.9-1.3c-1.3-1.6-2.9-2.8-4.7-3.5c-1.7-0.7-3.5-0.8-5-0.5c-0.7,0.2-1.3,0.5-1.8,0.8c-0.5,0.3-0.9,0.8-1.2,1.3
		c-0.7,1-1,2.5-1.1,4.3c0,1.8,0.3,3.7,0.8,5.6c0.1,0.5,0.3,1,0.4,1.4l0.2,0.7l0.1,0.2l0,0c0,0,0.1,0.2,0-0.1l0,0.1l0.1,0.2
		c0,0.1,0,0,0,0l0,0l0,0.1c0,0.1,0.1,0.1,0.1,0.2c0.1,0.1,0.2,0.3,0.2,0.4c0.2,0.3,0.4,0.6,0.6,0.9c0.9,1.2,2.1,1.9,2.9,2.2
		c0.4,0.1,0.7,0.2,1.1,0.1c0.4,0,0.9-0.3,1.3-0.6c0.2-0.2,0.5-0.4,0.7-0.6c0.1-0.1,0.6-0.7,0.7-0.8c0.2-0.2,0.4-0.5,0.6-0.7
		c0.2-0.3,0.3-0.5,0.5-0.8c0.6-1,0.8-2,0.7-2.8c-0.1-0.9-0.5-1.7-1.2-2.4c-0.6-0.6-1.4-1.1-2.1-1.4c-0.7-0.3-1.4-0.4-1.9-0.4
		c-0.5,0-1,0.1-1.3,0.1c-0.3,0.1-0.4,0.1-0.4,0.1l-0.4-0.8c0,0,0.1-0.1,0.4-0.3c0.3-0.2,0.8-0.5,1.4-0.7c1.3-0.4,3.6-0.7,6.2,0.7
		c1.2,0.7,2.6,1.9,3.3,3.7c0.8,1.8,0.8,4,0.3,6c-0.3,1-0.6,1.9-1.2,2.9c-0.3,0.6-0.4,0.7-0.8,1.3c-0.3,0.5-0.7,0.9-1.1,1.4
		c-0.8,0.9-1.9,1.8-3.3,2.4c-1.4,0.6-3,0.9-4.6,0.8c-1.6-0.1-3-0.6-4.3-1.3c-1.3-0.7-2.4-1.5-3.4-2.4c-0.5-0.5-1-1-1.5-1.6
		c-0.2-0.3-0.5-0.6-0.7-0.9c-0.1-0.2-0.2-0.3-0.3-0.5l-0.2-0.3l-0.2-0.3l-0.3-0.5l0-0.1l-0.1-0.2l-0.1-0.2l-0.4-0.9
		c-0.2-0.6-0.5-1.2-0.7-1.8c-0.9-2.4-1.5-5.1-1.7-8.1c-0.1-1.5,0.1-3.1,0.4-4.7c0.4-1.6,1-3.3,2.1-4.9c1-1.5,2.4-2.9,4.1-3.9
		c1.6-1,3.4-1.6,5.2-1.9c3.6-0.5,7.1,0.3,10.1,1.9c2.9,1.5,5.4,3.9,7.2,6.5c0.5,0.7,0.8,1.3,1.2,2c0.3,0.7,0.7,1.3,1,2
		c0.6,1.3,1.2,2.6,1.7,3.9c2,5.2,3.3,10.5,4.4,15.6c1.1,5.2,1.9,10.3,2.6,15.3c0.6,5,1.1,9.8,1.4,14.4c0.3,4.6,0.4,8.9,0.4,12.9
		c0,4,0,7.6-0.2,10.9c-0.1,3.2-0.3,6.1-0.5,8.4c-0.2,2.3-0.4,4.1-0.6,5.4c-0.2,1.2-0.2,1.9-0.2,1.9L438,106.9z"/>
</g>
<path class="st3" d="M410.4,21.6c9.8-3.8,15.2,12.5,5.5,16.3C406.1,41.7,400.7,25.4,410.4,21.6z"/>
<g>
	<path class="st3" d="M213.5,78.3c0,0,0,0.4,0.1,1.2c0,0.4,0.1,0.8,0.1,1.6c0,0.7,0.1,1.6,0.1,2.5c0,0.8,0,1.7-0.1,2.7
		c-0.1,1-0.1,2-0.2,3.1c-0.2,2.2-0.6,4.6-1.1,7.1c-0.5,2.6-1.1,5.3-1.9,8.1c-0.8,2.8-1.6,5.8-2.6,8.8c-2,6-4.4,12.3-7,18.4
		c-2.6,6.1-5.5,12.1-8.4,17.6c-1.5,2.8-2.9,5.4-4.3,7.9c-1.4,2.5-2.8,4.8-4.1,6.9c-1.3,2.1-2.6,4-3.7,5.7c-1.2,1.7-2.2,3.1-3.1,4.2
		c-0.9,1.2-1.6,2-2.1,2.6c-0.5,0.6-0.7,0.9-0.7,0.9s0.2-0.3,0.6-1c0.4-0.7,1-1.6,1.7-2.9c0.7-1.2,1.6-2.8,2.5-4.5
		c0.9-1.8,1.9-3.8,3-6c1-2.2,2.1-4.6,3.2-7.2c1.1-2.6,2.2-5.3,3.3-8.2c2.1-5.7,4.2-11.9,6-18.2c1.8-6.2,3.4-12.5,4.5-18.4
		c0.6-3,1.1-5.8,1.5-8.5c0.4-2.7,0.7-5.2,0.8-7.6c0.2-2.3,0.2-4.4,0.2-6.2c0-0.9-0.1-1.7-0.1-2.5c-0.1-0.7-0.1-1.4-0.2-2
		c-0.1-0.5-0.2-1-0.2-1.4c0-0.3-0.2-0.9-0.3-1.2c-0.2-0.8-0.3-1.2-0.3-1.2l0,0c-0.8-3.5,1.4-7,4.9-7.8c3.5-0.8,7,1.4,7.8,4.9
		C213.5,77.8,213.5,78.1,213.5,78.3z"/>
</g>
<g>
	<path class="st3" d="M155.1,175.5c0,0,0.4-0.4,1-1.2c0.3-0.3,0.6-0.7,1-1.2c0.4-0.5,0.9-1.1,1.3-1.8c2-2.8,4.7-7.1,7.5-12.6
		c2.8-5.5,5.8-12.3,8.7-19.7c2.9-7.4,5.7-15.5,8.2-23.6c5.1-16.3,9.1-33,11.3-45.6c1.1-6.3,1.8-11.6,1.9-15.4c0.1-1.9,0-3.3-0.2-4.3
		c-0.1-0.5-0.2-0.9-0.3-1.1c-0.1-0.2-0.2-0.3-0.2-0.3s0.1,0.1,0.2,0.3c0.1,0.2,0.3,0.6,0.4,1.1c0.3,1,0.5,2.5,0.6,4.3
		c0.2,3.8,0.1,9.2-0.4,15.6c-1,12.9-3.5,30-7.1,47c-3.5,17-8.2,33.8-13.1,46.2c-2.5,6.2-5,11.3-7.1,14.9c-0.5,0.9-1,1.7-1.4,2.4
		c-0.5,0.7-0.9,1.3-1.2,1.8c-0.6,0.8-0.9,1.3-0.9,1.3c-2.1,2.9-6.1,3.6-9.1,1.5c-2.9-2.1-3.6-6.1-1.5-9.1
		C154.9,175.8,155,175.6,155.1,175.5L155.1,175.5z"/>
</g>
<g>
	<path class="st3" d="M243.3,80.4c0,0-0.1,0.4-0.3,1.2c0,0.1,0,0.2-0.1,0.3c0,0.1,0,0.1,0,0.2c0,0.1,0,0.3-0.1,0.4
		c-0.1,0.2-0.1,0.8-0.2,1.4c-0.1,1.2-0.1,2.8-0.1,4.6c0.1,1.9,0.2,4,0.4,6.3c0.9,9.4,3.3,22.2,6.7,34.7c0.9,3.1,1.8,6.2,2.7,9.3
		c0.9,3.1,2,6,3,8.9c1,2.9,2.1,5.6,3.1,8.2c1.1,2.6,2.1,5,3.1,7.2c1,2.2,2,4.2,2.9,6c0.9,1.8,1.8,3.3,2.5,4.5
		c0.7,1.3,1.3,2.2,1.7,2.9c0.4,0.7,0.6,1,0.6,1s-0.3-0.3-0.7-0.9c-0.5-0.6-1.2-1.5-2.1-2.6c-0.9-1.1-1.9-2.6-3-4.2
		c-1.1-1.7-2.4-3.6-3.7-5.7c-1.3-2.1-2.7-4.4-4.1-6.9c-1.4-2.5-2.8-5.1-4.2-7.9c-1.4-2.8-2.8-5.7-4.1-8.6c-1.4-3-2.7-6-3.9-9.1
		c-5.1-12.3-9.2-25-11.4-35c-0.6-2.5-1-4.9-1.3-7c-0.3-2.2-0.5-4.1-0.6-5.7c0-0.8-0.1-1.6,0-2.4c0-0.4,0-0.8,0-1.1
		c0-0.2,0-0.3,0-0.5c0-0.1,0-0.2,0-0.3c0.1-0.8,0.1-1.2,0.1-1.2c0.3-3.6,3.5-6.2,7.1-5.9c3.6,0.3,6.2,3.5,5.9,7.1
		C243.4,79.8,243.3,80,243.3,80.4L243.3,80.4z"/>
</g>
<g>
	<path class="st3" d="M283,184.8c0,0-0.3-0.4-0.9-1.3c-0.3-0.4-0.7-1.1-1.2-1.7c-0.5-0.7-0.9-1.5-1.5-2.3c-2.1-3.5-4.8-8.6-7.4-14.7
		c-2.6-6.2-5.2-13.5-7.6-21.3c-2.4-7.9-4.5-16.3-6.4-24.8c-3.7-17-6.2-34.2-6.9-47.2c-0.4-6.5-0.3-11.9,0.1-15.7
		c0.2-1.9,0.6-3.4,1-4.3c0.2-0.5,0.4-0.8,0.5-1c0.1-0.2,0.2-0.3,0.2-0.3s-0.1,0.1-0.2,0.3c-0.1,0.2-0.3,0.6-0.4,1.1
		c-0.3,1-0.5,2.4-0.6,4.3c-0.1,3.7,0.3,9.1,1.3,15.5c2,12.7,6,29.5,11.2,45.8c2.6,8.2,5.5,16.2,8.5,23.6c3,7.4,6.1,14.1,9.1,19.6
		c3,5.5,5.7,9.8,7.8,12.5c0.5,0.7,1,1.3,1.4,1.8c0.4,0.5,0.8,0.9,1,1.2c0.7,0.8,1,1.2,1,1.2c2.4,2.7,2.1,6.8-0.6,9.2
		s-6.8,2.1-9.2-0.6C283.2,185.1,283.1,184.9,283,184.8z"/>
</g>
<g>
	<path class="st3" d="M107.1,498.2c0,0-0.8-0.5-2.2-1.5c-0.4-0.2-0.8-0.5-1.2-0.8c-0.5-0.3-1-0.7-1.5-1.1c-0.5-0.4-1.1-0.8-1.8-1.3
		c-0.6-0.5-1.2-1-1.9-1.5c-5.3-4.3-12.3-10.9-19.4-19.9c-7.1-8.9-14.3-20-20.8-32.4c-6.5-12.4-12.3-26.2-17.2-40.1
		c-4.9-14-8.9-28.3-12-41.8c-3.1-13.5-5.2-26.3-6.5-37.2c-1.3-11-1.6-20.2-1.1-26.7c0.3-3.2,0.7-5.7,1.3-7.4c0.2-0.4,0.3-0.8,0.5-1
		c0.2-0.3,0.3-0.5,0.5-0.7c0.3-0.3,0.5-0.5,0.5-0.5s-0.2,0.2-0.4,0.5c-0.1,0.2-0.2,0.4-0.4,0.7c-0.1,0.3-0.3,0.7-0.4,1
		c-0.5,1.6-0.9,4.1-0.9,7.3c-0.2,6.4,0.7,15.6,2.5,26.4c1.8,10.8,4.6,23.4,8.3,36.6c3.7,13.2,8.4,27.1,13.9,40.6
		c5.5,13.5,11.9,26.6,18.7,38.3c6.8,11.7,14.3,21.9,21.3,29.9c7.1,8,13.8,13.7,18.7,17.3c0.6,0.4,1.2,0.9,1.7,1.3
		c0.5,0.4,1,0.7,1.5,1c0.5,0.3,0.9,0.6,1.3,0.9c0.4,0.3,0.9,0.5,1.2,0.8c1.5,0.9,2.2,1.4,2.2,1.4c2.8,1.7,3.7,5.4,2,8.3
		c-1.7,2.8-5.4,3.7-8.3,2C107.3,498.4,107.2,498.3,107.1,498.2z"/>
</g>
<g>
	<path class="st3" d="M323.9,488.4c0,0,0.8-0.5,2.2-1.4c0.4-0.2,0.8-0.5,1.2-0.8c0.4-0.3,0.8-0.6,1.3-0.9c0.5-0.3,1-0.7,1.5-1
		c0.5-0.4,1.1-0.8,1.7-1.3c4.9-3.6,11.6-9.3,18.7-17.3c7.1-8,14.5-18.2,21.3-29.9c6.9-11.7,13.2-24.8,18.7-38.3
		c5.5-13.5,10.2-27.4,13.9-40.6c3.7-13.2,6.5-25.7,8.3-36.6c1.8-10.8,2.6-20,2.5-26.4c-0.1-3.2-0.4-5.7-0.9-7.3
		c-0.2-0.4-0.3-0.8-0.4-1c-0.2-0.3-0.3-0.5-0.4-0.7c-0.3-0.3-0.4-0.5-0.4-0.5s0.2,0.2,0.5,0.5c0.1,0.2,0.3,0.4,0.5,0.7
		c0.2,0.3,0.3,0.6,0.5,1c0.6,1.6,1.1,4.1,1.3,7.4c0.5,6.4,0.1,15.7-1.1,26.7c-1.3,11-3.4,23.7-6.5,37.2c-3.1,13.5-7.1,27.8-12,41.8
		c-4.9,14-10.7,27.7-17.2,40.1c-6.4,12.4-13.6,23.5-20.8,32.4c-7.1,8.9-14.1,15.6-19.4,19.9c-0.7,0.5-1.3,1-1.9,1.5
		c-0.6,0.5-1.2,0.9-1.8,1.3c-0.5,0.4-1.1,0.8-1.5,1.1c-0.4,0.3-0.8,0.6-1.2,0.8c-1.4,1-2.2,1.5-2.2,1.5c-2.7,1.9-6.5,1.2-8.3-1.5
		s-1.2-6.5,1.5-8.3C323.7,488.5,323.8,488.4,323.9,488.4z"/>
</g>
</svg>
