<?xml version="1.0" encoding="utf-8"?>
<!-- Generator: Adobe Illustrator 16.0.0, SVG Export Plug-In . SVG Version: 6.00 Build 0)  -->
<!DOCTYPE svg PUBLIC "-//W3C//DTD SVG 1.1//EN" "http://www.w3.org/Graphics/SVG/1.1/DTD/svg11.dtd">
<svg version="1.1" id="Layer_1" xmlns="http://www.w3.org/2000/svg" xmlns:xlink="http://www.w3.org/1999/xlink" x="0px" y="0px"
	 width="462.8px" height="527.7px" viewBox="0 0 462.8 527.7" style="enable-background:new 0 0 462.8 527.7;" xml:space="preserve"
	>
<style type="text/css">
<![CDATA[
	.st0{fill:none;stroke:#31353D;stroke-width:10;stroke-miterlimit:10;}
	.st1{fill:none;stroke:#31353D;stroke-width:8;stroke-miterlimit:10;}
	.st2{fill:none;stroke:#31353D;stroke-width:3;stroke-miterlimit:10;}
	.st3{fill:none;stroke:#31353D;stroke-width:10;stroke-linecap:round;stroke-linejoin:bevel;stroke-miterlimit:10;}
	.st4{fill:none;stroke:#31353D;stroke-width:12;stroke-linecap:round;stroke-linejoin:bevel;stroke-miterlimit:10;}
	.st5{fill:none;stroke:#31353D;stroke-width:15;stroke-linecap:round;stroke-linejoin:bevel;stroke-miterlimit:10;}
	.st6{fill:#31353D;}
	.st7{fill:none;stroke:#31353D;stroke-width:7;stroke-linecap:round;stroke-linejoin:bevel;stroke-miterlimit:10;}
	.st8{fill:none;stroke:#31353D;stroke-width:8;stroke-linecap:round;stroke-linejoin:bevel;stroke-miterlimit:10;}
]]>
</style>
<g>
	<path class="st5" d="M7.5,111.4L7.3,511.6c0,0,404.5,27.5,433.1-15.8c32-48.5,2.7-384.8,2.7-384.8L7.5,111.4z"/>
	<polyline class="st3" points="46.9,161.3 138.5,239.5 173.6,160 46.9,161.3 	"/>
	<path class="st3" d="M378.9,201.4c-1,26-21.5,46.3-45.9,45.3c-24.3-0.9-43.3-22.8-42.2-48.7c1-26,21.5-46.3,45.9-45.3
		C360.9,153.7,379.9,175.5,378.9,201.4z"/>
	<path class="st8" d="M51.3,232.7C51,239.2,46,244.3,40,244.1c-6-0.2-10.6-5.7-10.3-12.1c0.3-6.5,5.3-11.6,11.2-11.3
		C46.9,220.8,51.5,226.3,51.3,232.7z"/>
	<path class="st8" d="M196.3,253.2c-0.3,6.8-5.7,12.2-12.2,12c-6.5-0.3-11.6-6-11.3-12.9c0.3-6.8,5.8-12.2,12.2-12
		C191.5,240.6,196.6,246.4,196.3,253.2z"/>
	<path class="st7" d="M242.7,291.3c-0.3,6.8-5.2,12.2-10.9,12c-5.8-0.3-10.2-4.7-10-11.5c0.3-6.9,5.2-12.2,10.9-12
		C238.4,280.1,242.8,288,242.7,291.3z"/>
	<path class="st7" d="M242.9,328.8c-0.2,5.2-4.7,9.4-10.1,9.1c-5.4-0.2-9.6-4.6-9.4-9.8c0.2-5.2,4.8-9.4,10.1-9.1
		C238.9,319.2,243.1,323.6,242.9,328.8z"/>
	<path class="st8" d="M50.9,394.2c-0.2,5.5-4.9,9.9-10.5,9.7c-5.6-0.3-9.9-5-9.7-10.5c0.2-5.6,4.9-10,10.5-9.8
		C46.7,383.8,51.1,388.6,50.9,394.2z"/>
	<path class="st4" d="M247.2,25.7c-0.4,10.5-8.9,18.6-18.9,18.2c-10.1-0.4-17.9-9.2-17.5-19.6c0.4-10.5,8.9-18.6,18.9-18.2
		C239.7,6.4,247.6,15.2,247.2,25.7z"/>
	<g>
		<path class="st6" d="M406.7,427.5c-0.2,0-0.4,0-0.6,0c-2.9-0.1-5.6-1.1-7.5-2.9c-1.8-1.6-2.7-3.7-2.7-5.9c0.2-4.5,4.7-8,10.2-8
			c0.2,0,0.4,0,0.5,0c5.8,0.3,10.4,4.3,10.2,8.9C416.6,424,412.1,427.5,406.7,427.5z"/>
		<path class="st6" d="M406.1,414.1L406.1,414.1c0.1,0,0.3,0,0.4,0c3.8,0.2,6.9,2.6,6.9,5.2c-0.2,2.5-3.1,4.6-6.7,4.6
			c-0.1,0-0.3,0-0.4,0l-0.1,0c-2-0.1-3.9-0.8-5.2-2c-0.6-0.5-1.6-1.7-1.5-3.2C399.5,416.2,402.5,414.1,406.1,414.1 M406.1,407.1
			c-7.4,0-13.5,5-13.7,11.4c-0.2,6.6,5.8,12.2,13.6,12.4c0.3,0,0.5,0,0.8,0c7.4,0,13.4-4.9,13.7-11.3c0.2-6.6-5.9-12.2-13.6-12.5
			C406.5,407.1,406.3,407.1,406.1,407.1L406.1,407.1z"/>
	</g>
	<g>
		<path class="st6" d="M418.7,439.1c-5.9,0-10.7,4.1-10.9,9.3c-0.3,5.5,4.5,10,10.7,10.3c0.1,0,0.3,0,0.4,0c6,0,10.9-4.1,11.1-9.4
			c0.2-5.4-4.6-10-10.7-10.2C419.1,439.1,418.9,439.1,418.7,439.1L418.7,439.1z"/>
	</g>
	<line class="st7" x1="41.7" y1="244.1" x2="41.3" y2="380.7"/>
	<polyline class="st8" points="43.9,311.6 125.3,310 175.6,260.3 	"/>
	<polygon class="st0" points="112.8,407.1 111.5,479.2 136.1,463.7 326.2,464.5 353.2,483.8 352.4,407.6 327.5,427.9 136.6,428.4 	
		"/>
	<line class="st0" x1="223" y1="44.6" x2="224.1" y2="108.2"/>
	<line class="st0" x1="241.4" y1="39.3" x2="250.1" y2="113.6"/>
	<path class="st1" d="M395.9,510.7c0,0,19.6-33.7,10.9-58.7c-10-28.8-27.6-38.7-27.6-38.7l9.2-26.1c0,0,27.9,11.5,37.7,40
		c12.9,37.8,5.1,70.8,5.1,70.8"/>
	<g>
		<path class="st6" d="M418.8,474c-5.9,0-10.7,4.1-11,9.3c-0.2,5.4,4.6,10,10.8,10.3c0.2,0,0.3,0,0.5,0c5.9,0,10.8-4.1,11-9.4
			c0.2-5.4-4.5-10-10.7-10.2C419.2,474,419,474,418.8,474L418.8,474z"/>
	</g>
	<g>
		<polygon class="st2" points="190.6,353.1 225.7,352.8 226,377.2 116.3,377.2 		"/>
		<line class="st2" x1="168.5" y1="359.7" x2="156.9" y2="377.6"/>
		<line class="st2" x1="186.2" y1="354.3" x2="171.6" y2="377.5"/>
		<line class="st2" x1="216.1" y1="352.7" x2="203.7" y2="377"/>
		<line class="st2" x1="207.5" y1="353.1" x2="195.5" y2="377.5"/>
		<line class="st2" x1="201.4" y1="352.7" x2="187.2" y2="377.3"/>
		<line class="st2" x1="194.7" y1="352.8" x2="178.9" y2="377.9"/>
		<line class="st2" x1="176.8" y1="357.7" x2="162.6" y2="377.8"/>
		<line class="st2" x1="160" y1="362.7" x2="147.4" y2="377.6"/>
		<line class="st2" x1="149.6" y1="365.9" x2="139.4" y2="377.5"/>
		<line class="st2" x1="138.8" y1="369.9" x2="132.5" y2="377.2"/>
		<line class="st2" x1="216.1" y1="377.5" x2="221.1" y2="354.3"/>
		<line class="st2" x1="221.1" y1="377" x2="226" y2="357.2"/>
	</g>
	<g>
		<polygon class="st2" points="276,353.1 240.8,352.8 240.5,377.3 350.3,377.3 		"/>
		<line class="st2" x1="298" y1="359.7" x2="309.6" y2="377.8"/>
		<line class="st2" x1="280.3" y1="354.5" x2="294.8" y2="377.6"/>
		<line class="st2" x1="250.5" y1="352.7" x2="262.8" y2="377"/>
		<line class="st2" x1="259" y1="353.1" x2="271.1" y2="377.5"/>
		<line class="st2" x1="265.1" y1="352.7" x2="279.3" y2="377.3"/>
		<line class="st2" x1="271.7" y1="352.8" x2="287.7" y2="378"/>
		<line class="st2" x1="289.8" y1="357.9" x2="304" y2="377.8"/>
		<line class="st2" x1="306.6" y1="362.7" x2="319" y2="377.8"/>
		<line class="st2" x1="317" y1="366" x2="327.1" y2="377.5"/>
		<line class="st2" x1="327.7" y1="370" x2="333.9" y2="377.3"/>
		<line class="st2" x1="250.5" y1="377.5" x2="245.4" y2="354.5"/>
		<line class="st2" x1="245.4" y1="377" x2="240.6" y2="357.2"/>
	</g>
</g>
</svg>
